#N canvas 703 130 450 489 12;
#X declare -lib iemlib;
#X msg 220 24 devices;
#X msg 339 12 close;
#X msg 286 20 open 6;
#X obj 249 199 sel 13 10;
#X obj 249 269 iem_alisttosym;
#X obj 249 245 else/group 100;
#X obj 45 123 declare -lib iemlib;
#X obj 249 293 cyclone/fromsymbol;
#X obj 248 107 comport 0 9600;
#X obj 244 345 tgl 15 0 empty empty empty 17 7 0 10 #fcfcfc #000000
#000000 0 1;
#X connect 0 0 8 0;
#X connect 1 0 8 0;
#X connect 2 0 8 0;
#X connect 3 0 5 0;
#X connect 3 2 5 0;
#X connect 4 0 7 0;
#X connect 5 0 4 0;
#X connect 7 0 9 0;
#X connect 8 0 3 0;
