#N canvas 342 88 878 715 12;
#X obj 269 120 comport 0 9600;
#X msg 220 24 devices;
#X msg 339 12 close;
#X msg 286 20 open 6;
#X obj 261 216 sel 13 10;
#X obj 261 262 zl group 100;
#X obj 261 286 iem_alisttosym;
#X obj 261 310 fromsymbol;
#X floatatom 260 349 5 0 0 0 - - - 0;
#X obj 260 383 change;
#X text 53 378 Change skickar bara värden ifall något ändras, f
26;
#X obj 206 843 *~;
#X msg 223 812 0.4;
#X obj 258 424 route 0 1;
#N canvas 0 0 450 300 (subpatch) 0;
#X array sample 352800 float 0;
#X coords 0 1 352799 -1 250 200 1 0 0;
#X restore 683 611 graph;
#X obj 665 536 soundfiler;
#X floatatom 665 562 0 0 0 0 - - - 0;
#X text 732 474 load table;
#X obj 665 474 loadbang;
#X text 289 603 "set" message permits you to switch between arrays
;
#X text 315 755 creation argument initializes array name;
#X msg 231 678 0 44100;
#X msg 225 653 44100;
#X msg 218 629 bang;
#X text 252 630 "bang" or 0 plays whole sample;
#X text 272 652 play starting at 44100th sample;
#X text 289 676 play starting at beginning for 44100 samples;
#X msg 236 703 44100 1000;
#X text 314 702 play from 44100 through 45099 (1000 samples);
#X msg 243 728 stop;
#X text 279 729 stop playing (outputs zeros when stopped);
#X obj 306 792 bng 18 250 50 0 empty empty empty 17 7 0 10 #fcfcfc
#000000 #000000;
#X obj 204 755 tabplay~ sample;
#X msg 204 603 set sample;
#X obj 189 881 dac~;
#X obj 223 784 loadbang;
#X text 513 240 Testa att se vad som händer med HIHG/LOW när man
kopplar ur allt :), f 36;
#X msg 665 504 read -resize ../soundfiles/bell.wav sample;
#X obj 478 398 readsf~;
#X connect 0 0 4 0;
#X connect 1 0 0 0;
#X connect 2 0 0 0;
#X connect 3 0 0 0;
#X connect 4 0 5 0;
#X connect 4 2 5 0;
#X connect 5 0 6 0;
#X connect 6 0 7 0;
#X connect 7 0 8 0;
#X connect 8 0 9 0;
#X connect 9 0 13 0;
#X connect 11 0 34 0;
#X connect 11 0 34 1;
#X connect 12 0 11 1;
#X connect 13 1 23 0;
#X connect 15 0 16 0;
#X connect 18 0 37 0;
#X connect 21 0 32 0;
#X connect 22 0 32 0;
#X connect 23 0 32 0;
#X connect 27 0 32 0;
#X connect 29 0 32 0;
#X connect 32 0 11 0;
#X connect 32 1 31 0;
#X connect 33 0 32 0;
#X connect 35 0 12 0;
#X connect 37 0 15 0;
