#N canvas 558 191 603 544 12;
#X text 231 24 RECEIVING;
#N canvas 92 117 532 273 sending_data 0;
#X msg 327 115 disconnect;
#X obj 226 202 packOSC;
#X text 146 84 SENDING;
#X obj 208 48 loadbang;
#X obj 35 50 receive mp3gate;
#X msg 340 52 connect 0.0.0.0 9998;
#X msg 35 85 /mp3gate \$1;
#X msg 205 84 connect 192.168.1.219 9998;
#X obj 226 234 mrpeach/udpsend;
#X text 34 28 STUFF TO SEND;
#X text 338 29 SENDING FROM LOCALHOST;
#X connect 0 0 8 0;
#X connect 1 0 8 0;
#X connect 3 0 7 0;
#X connect 4 0 6 0;
#X connect 5 0 8 0;
#X connect 6 0 1 0;
#X connect 7 0 8 0;
#X restore 39 72 pd sending_data;
#X obj 251 152 netreceive -u -b;
#X msg 254 114 listen 9994;
#X obj 251 176 oscparse;
#X obj 255 212 list trim;
#X obj 256 250 route weather_number other_symbols;
#X obj 256 289 print;
#X connect 2 0 4 0;
#X connect 3 0 2 0;
#X connect 4 0 5 0;
#X connect 5 0 6 0;
#X connect 6 0 7 0;
