#N canvas 558 191 603 544 12;
#X declare -path osc;
#X obj 233 79 unpackOSC;
#X text 231 24 RECEIVING;
#X obj 233 47 mrpeach/udpreceive 9994;
#X obj 59 136 routeOSC /weather;
#X obj 59 175 print;
#X obj 289 129 routeOSC /weather_number;
#N canvas 92 117 532 273 sending_data 0;
#X msg 327 115 disconnect;
#X obj 226 202 packOSC;
#X text 146 84 SENDING;
#X obj 208 48 loadbang;
#X obj 35 50 receive mp3gate;
#X msg 340 52 connect 0.0.0.0 9998;
#X msg 35 85 /mp3gate \$1;
#X msg 205 84 connect 192.168.1.219 9998;
#X obj 226 234 mrpeach/udpsend;
#X text 34 28 STUFF TO SEND;
#X text 338 29 SENDING FROM LOCALHOST;
#X connect 0 0 8 0;
#X connect 1 0 8 0;
#X connect 3 0 7 0;
#X connect 4 0 6 0;
#X connect 5 0 8 0;
#X connect 6 0 1 0;
#X connect 7 0 8 0;
#X restore 39 72 pd sending_data;
#X obj 288 276 route 1 2 3 4 5 ...;
#X obj 289 169 change;
#X floatatom 289 193 5 0 0 0 - - - 0;
#X obj 47 374 declare -path osc;
#X text 351 174 Se dokumentation för vilka siffror som betyder vilket
väder., f 28;
#X obj 252 377 netreceive -u -b;
#X msg 255 339 listen 9994;
#X obj 252 401 oscparse;
#X obj 252 425 print;
#X connect 0 0 3 0;
#X connect 0 0 5 0;
#X connect 2 0 0 0;
#X connect 3 0 4 0;
#X connect 5 0 8 0;
#X connect 8 0 9 0;
#X connect 9 0 7 0;
#X connect 12 0 14 0;
#X connect 13 0 12 0;
#X connect 14 0 15 0;
