#N canvas 657 75 878 715 12;
#X declare -lib iemlib;
#X msg 357 19 devices;
#X msg 476 7 close;
#X msg 423 15 open 6;
#X obj 108 1422 *~;
#X obj 114 1467 dac~;
#X msg 60 1318 0;
#X obj 100 1361 readsf~ 2;
#X obj 143 1423 *~;
#X floatatom 389 350 5 0 0 0 - - - 0;
#X msg 690 753 print;
#X msg 569 652 bang;
#X msg 671 699 start;
#X msg 678 727 stop;
#X obj 569 693 del 1000;
#X text 715 701 start streaming audio;
#X text 717 727 stop streaming audio;
#X obj 663 820 writesf~ 2, f 15;
#X msg 663 671 open -bytes 4 /tmp/foo.wav;
#X msg 651 646 open -bytes 3 /tmp/foo.wav;
#X text 760 620 create a new 16-bit integer soundfile;
#X text 781 814 The creation argument is the number of channels (1
to 64)., f 29;
#X obj 270 524 vsl 15 128 0 500 0 0 empty empty empty 0 -9 0 10 #fcfcfc
#000000 #000000 0 1;
#X floatatom 389 397 5 0 0 0 - - - 0;
#X floatatom 346 500 5 0 0 0 - - - 0;
#X obj 389 420 pow 2;
#X obj 356 591 line;
#X floatatom 356 615 5 0 0 0 - - - 0;
#X obj 389 373 - 243;
#X obj 267 669 moses 250;
#X msg 185 822 0;
#X msg 192 736 0;
#X msg 288 730 1;
#X obj 184 862 change;
#X msg 192 784 set \$1 \, bang;
#X obj 184 886 route 0 1;
#X msg 631 620 open telephone1.wav;
#X obj 587 839 env~;
#X obj 589 772 adc~;
#X floatatom 587 872 5 0 0 0 - - - 0;
#X msg 101 1286 open telephone1.wav \, 1;
#X obj 317 1233 vsl 15 128 0 1 0 0 empty empty empty 0 -9 0 10 #fcfcfc
#000000 #000000 0 1;
#X obj 123 821 spigot;
#X obj 171 783 tgl 15 0 empty empty empty 17 7 0 10 #fcfcfc #000000
#000000 0 1;
#X msg 349 532 \$1 500;
#X obj 218 1083 + 1;
#X floatatom 218 1117 5 0 0 0 - - - 0;
#X msg 264 1014 set \$1;
#X obj 205 991 t b b;
#X msg 205 1015 1;
#X obj 295 950 loadbang;
#X msg 295 974 1, f 2;
#X obj 215 706 moses 30;
#X msg 264 1038 1;
#X obj 190 940 delay 1000;
#X obj 218 1170 route 2 3 4 5 6 7 8;
#X text 404 555 Line gör mätaren mer "trögflytande", f 18;
#X text 441 421 pow 2 gör alla tal positiva;
#X obj 379 200 sel 13 10;
#X obj 379 270 iem_alisttosym;
#X obj 379 246 else/group 100;
#X obj 216 152 declare -lib iemlib;
#X obj 379 294 cyclone/fromsymbol;
#X obj 378 108 comport 0 9600;
#X connect 0 0 62 0;
#X connect 1 0 62 0;
#X connect 2 0 62 0;
#X connect 3 0 4 0;
#X connect 5 0 6 0;
#X connect 6 0 3 0;
#X connect 6 1 7 0;
#X connect 6 2 42 0;
#X connect 7 0 4 1;
#X connect 8 0 27 0;
#X connect 9 0 16 0;
#X connect 10 0 11 0;
#X connect 10 0 13 0;
#X connect 11 0 16 0;
#X connect 12 0 16 0;
#X connect 13 0 12 0;
#X connect 17 0 16 0;
#X connect 18 0 16 0;
#X connect 21 0 28 0;
#X connect 22 0 24 0;
#X connect 23 0 43 0;
#X connect 24 0 23 0;
#X connect 25 0 26 0;
#X connect 25 0 21 0;
#X connect 27 0 22 0;
#X connect 28 0 51 0;
#X connect 28 1 31 0;
#X connect 29 0 32 0;
#X connect 30 0 33 0;
#X connect 31 0 33 0;
#X connect 32 0 34 0;
#X connect 33 0 29 0;
#X connect 34 0 53 0;
#X connect 34 1 42 0;
#X connect 35 0 16 0;
#X connect 36 0 38 0;
#X connect 37 0 36 0;
#X connect 37 0 16 0;
#X connect 37 1 16 1;
#X connect 39 0 6 0;
#X connect 40 0 7 1;
#X connect 40 0 3 1;
#X connect 41 0 34 0;
#X connect 42 0 41 1;
#X connect 43 0 25 0;
#X connect 44 0 45 0;
#X connect 44 0 46 0;
#X connect 45 0 54 0;
#X connect 46 0 52 0;
#X connect 47 0 48 0;
#X connect 47 1 52 0;
#X connect 48 0 44 0;
#X connect 49 0 50 0;
#X connect 50 0 46 0;
#X connect 51 0 30 0;
#X connect 52 0 44 1;
#X connect 53 0 47 0;
#X connect 54 0 39 0;
#X connect 57 0 59 0;
#X connect 57 2 59 0;
#X connect 58 0 61 0;
#X connect 59 0 58 0;
#X connect 61 0 8 0;
#X connect 62 0 57 0;
