#N canvas 562 86 878 715 12;
#X declare -lib iemlib;
#X msg 220 24 devices;
#X msg 339 12 close;
#X msg 286 20 open 6;
#X floatatom 477 470 7 0 0 0 - - - 0;
#X msg 444 443 clear;
#X floatatom 511 497 5 1 50 0 - - - 0;
#X text 534 470 <= center frequency;
#X text 491 442 <= reinitialize internal state;
#X text 532 522 Arguments initialize center frequency and Q, f 22
;
#X obj 420 389 noise~;
#X text 558 497 <= Q (controls bandwidth);
#X obj 444 530 bp~ 500 10;
#X obj 508 560 vsl 15 128 0 0.3 0 0 empty empty empty 0 -9 0 10 #fcfcfc
#000000 #000000 0 1;
#X obj 444 675 *~;
#X obj 283 740 dac~;
#X text 533 603 Volume, f 7;
#X obj 69 589 osc~;
#X obj 70 424 loadbang;
#X floatatom 68 500 5 0 0 0 - - - 0;
#X msg 68 476 220;
#X obj 68 541 +~;
#X obj 154 483 osc~;
#X obj 154 507 *~;
#X obj 138 559 vsl 15 128 0 0.3 0 0 empty empty empty 0 -9 0 10 #fcfcfc
#000000 #000000 0 1;
#X obj 70 669 *~;
#X text 163 602 Volume, f 7;
#X floatatom 193 443 5 0 0 0 - - - 0;
#X msg 192 419 1000;
#X obj 261 343 unpack f f f f f f;
#X floatatom 257 388 5 0 0 0 - - - 0;
#X floatatom 296 412 5 0 0 0 - - - 0;
#X obj 247 212 sel 13 10;
#X obj 247 282 iem_alisttosym;
#X obj 247 258 else/group 100;
#X obj 69 204 declare -lib iemlib;
#X obj 247 306 cyclone/fromsymbol;
#X obj 246 120 comport 0 9600;
#X connect 0 0 36 0;
#X connect 1 0 36 0;
#X connect 2 0 36 0;
#X connect 3 0 11 1;
#X connect 4 0 11 0;
#X connect 5 0 11 2;
#X connect 9 0 11 0;
#X connect 11 0 13 0;
#X connect 12 0 13 1;
#X connect 13 0 14 0;
#X connect 13 0 14 1;
#X connect 16 0 24 0;
#X connect 17 0 19 0;
#X connect 17 0 27 0;
#X connect 18 0 20 0;
#X connect 19 0 18 0;
#X connect 20 0 16 0;
#X connect 21 0 22 0;
#X connect 22 0 20 1;
#X connect 23 0 24 1;
#X connect 24 0 14 0;
#X connect 24 0 14 1;
#X connect 26 0 22 1;
#X connect 27 0 26 0;
#X connect 28 0 21 0;
#X connect 28 0 29 0;
#X connect 28 1 3 0;
#X connect 28 1 30 0;
#X connect 31 0 33 0;
#X connect 31 2 33 0;
#X connect 32 0 35 0;
#X connect 33 0 32 0;
#X connect 35 0 28 0;
#X connect 36 0 31 0;
