#N canvas 262 58 1021 677 12;
#X declare -lib iemlib;
#X msg 178 68 devices;
#X msg 297 56 close;
#X msg 244 64 open 6;
#X obj 208 444 sel 13 10;
#X obj 208 514 iem_alisttosym;
#X obj 208 490 else/group 100;
#X obj 27 244 declare -lib iemlib;
#X obj 208 538 cyclone/fromsymbol;
#X obj 207 410 comport 0 9600;
#X floatatom 442 302 17 0 0 0 - - - 0;
#X obj 442 329 moocow/any2bytes;
#X obj 442 353 cyclone/zl ecils 1;
#X obj 442 377 cyclone/append 32 13;
#X text 58 19 Open Arduino patch: Arduino_serial;
#X obj 443 112 vsl 15 128 0 255 0 0 empty empty empty 0 -9 0 10 #fcfcfc
#000000 #000000 0 1;
#X msg 1070 75 1;
#X obj 1063 414 vu 15 120 empty empty -1 -8 0 10 #404040 #000000 1
0;
#X msg 1113 79 0;
#N canvas 555 390 625 417 vu 0;
#X obj 59 129 env~ 1024;
#X obj 161 111 abs~;
#X obj 161 213 snapshot~;
#X obj 161 256 rmstodb;
#X obj 161 21 inlet~;
#X obj 161 288 - 100;
#X obj 59 287 - 100;
#X obj 59 361 outlet;
#X obj 161 361 outlet;
#X text 344 307 Check the help file of env~ and slop~ for more details.
, f 31;
#X obj 239 89 expr 1000 / $f1;
#X floatatom 239 117 5 0 0 0 - - - 0;
#X obj 161 146 slop~ 0 0 0 0 1e+09;
#X obj 239 18 inlet;
#X floatatom 239 57 5 0 0 0 - - - 0;
#X text 359 89 convert to hz;
#X text 282 118 hz;
#X text 284 57 peak decay time in ms;
#X obj 59 171 t f b;
#X text 345 132 The env~ object is dedicated to RMS analysis. Its output
is in dB (0-100 range \, pd style) but needs to be converted to dBFS
(and we do that by simply subtracting 100)., f 31;
#X text 345 225 The slop~ object is used here for peak detection. We
need to convert the output to dB with rmstodb and also subtract by
100 to convert it to dBFS., f 31;
#X connect 0 0 18 0;
#X connect 1 0 12 0;
#X connect 2 0 3 0;
#X connect 3 0 5 0;
#X connect 4 0 0 0;
#X connect 4 0 1 0;
#X connect 5 0 8 0;
#X connect 6 0 7 0;
#X connect 10 0 11 0;
#X connect 11 0 12 3;
#X connect 12 0 2 0;
#X connect 13 0 14 0;
#X connect 14 0 10 0;
#X connect 18 0 6 0;
#X connect 18 1 2 0;
#X restore 1056 351 pd vu;
#X floatatom 1092 320 5 0 0 1 Delay - - 0;
#X obj 909 206 dac~ 1 2;
#X obj 1030 116 readsf~ 2;
#X msg 992 12 open ../soundfiles/Superlover_piano_pump.wav \, 1;
#X floatatom 1111 540 5 0 0 0 - - - 0;
#X floatatom 1091 209 5 0 0 0 - - - 0;
#X msg 1063 181 clear;
#X text 1112 180 <= reinitialize internal state;
#X obj 1046 254 lop~ 35;
#X obj 1253 411 vu 15 120 empty empty -1 -8 0 10 #404040 #000000 1
0;
#N canvas 555 390 625 417 vu 0;
#X obj 59 129 env~ 1024;
#X obj 161 111 abs~;
#X obj 161 213 snapshot~;
#X obj 161 256 rmstodb;
#X obj 161 21 inlet~;
#X obj 161 288 - 100;
#X obj 59 287 - 100;
#X obj 59 361 outlet;
#X obj 161 361 outlet;
#X text 344 307 Check the help file of env~ and slop~ for more details.
, f 31;
#X obj 239 89 expr 1000 / $f1;
#X floatatom 239 117 5 0 0 0 - - - 0;
#X obj 161 146 slop~ 0 0 0 0 1e+09;
#X obj 239 18 inlet;
#X floatatom 239 57 5 0 0 0 - - - 0;
#X text 359 89 convert to hz;
#X text 282 118 hz;
#X text 284 57 peak decay time in ms;
#X obj 59 171 t f b;
#X text 345 132 The env~ object is dedicated to RMS analysis. Its output
is in dB (0-100 range \, pd style) but needs to be converted to dBFS
(and we do that by simply subtracting 100)., f 31;
#X text 345 225 The slop~ object is used here for peak detection. We
need to convert the output to dB with rmstodb and also subtract by
100 to convert it to dBFS., f 31;
#X connect 0 0 18 0;
#X connect 1 0 12 0;
#X connect 2 0 3 0;
#X connect 3 0 5 0;
#X connect 4 0 0 0;
#X connect 4 0 1 0;
#X connect 5 0 8 0;
#X connect 6 0 7 0;
#X connect 10 0 11 0;
#X connect 11 0 12 3;
#X connect 12 0 2 0;
#X connect 13 0 14 0;
#X connect 14 0 10 0;
#X connect 18 0 6 0;
#X connect 18 1 2 0;
#X restore 1246 348 pd vu;
#X floatatom 1314 514 5 0 0 0 - - - 0;
#X floatatom 668 295 5 0 0 0 - - - 0;
#X obj 667 329 moocow/any2bytes;
#X obj 667 353 cyclone/zl ecils 1;
#X obj 667 377 cyclone/append 32 13;
#X obj 668 117 vsl 15 128 256 511 0 0 empty empty empty 0 -9 0 10 #fcfcfc
#000000 #000000 0 1;
#X floatatom 1308 214 5 0 0 0 - - - 0;
#X obj 1247 625 + 256;
#X obj 170 598 print;
#X obj 1057 604 exp 2;
#X obj 1056 636 int;
#X obj 1254 657 int;
#X obj 1247 601 exp 4;
#X obj 667 264 moses 511;
#X obj 1241 253 hip~ 8000;
#X obj 1248 569 + 27;
#X obj 1058 572 + 9;
#X obj 442 271 moses 255;
#X connect 0 0 8 0;
#X connect 1 0 8 0;
#X connect 2 0 8 0;
#X connect 3 0 5 0;
#X connect 3 2 5 0;
#X connect 4 0 7 0;
#X connect 5 0 4 0;
#X connect 7 0 38 0;
#X connect 8 0 3 0;
#X connect 9 0 10 0;
#X connect 10 0 11 0;
#X connect 11 0 12 0;
#X connect 12 0 8 0;
#X connect 14 0 47 0;
#X connect 15 0 21 0;
#X connect 16 0 46 0;
#X connect 17 0 21 0;
#X connect 18 0 16 0;
#X connect 18 1 16 1;
#X connect 19 0 18 1;
#X connect 21 0 20 0;
#X connect 21 0 27 0;
#X connect 21 0 44 0;
#X connect 21 1 20 1;
#X connect 21 1 27 0;
#X connect 21 1 44 0;
#X connect 22 0 21 0;
#X connect 23 0 46 1;
#X connect 24 0 27 1;
#X connect 25 0 27 0;
#X connect 27 0 18 0;
#X connect 28 0 45 0;
#X connect 29 0 28 0;
#X connect 29 1 28 1;
#X connect 30 0 45 1;
#X connect 31 0 32 0;
#X connect 32 0 33 0;
#X connect 33 0 34 0;
#X connect 34 0 8 0;
#X connect 35 0 43 0;
#X connect 36 0 44 1;
#X connect 37 0 41 0;
#X connect 39 0 40 0;
#X connect 40 0 14 0;
#X connect 41 0 35 0;
#X connect 42 0 37 0;
#X connect 43 0 31 0;
#X connect 44 0 29 0;
#X connect 45 0 42 0;
#X connect 46 0 39 0;
#X connect 47 0 9 0;
