#N canvas 535 59 600 461 12;
#X declare -lib iemlib;
#X msg 238 33 devices;
#X msg 357 21 close;
#X msg 304 29 open 6;
#X obj 268 188 sel 13 10;
#X obj 268 258 iem_alisttosym;
#X obj 268 234 else/group 100;
#X obj 74 182 declare -lib iemlib;
#X obj 268 282 cyclone/fromsymbol;
#X obj 267 96 comport 0 9600;
#X obj 268 306 route Light other;
#X floatatom 235 358 5 0 0 0 - - - 0;
#X obj 147 323 print;
#X connect 0 0 8 0;
#X connect 1 0 8 0;
#X connect 2 0 8 0;
#X connect 3 0 5 0;
#X connect 3 2 5 0;
#X connect 4 0 7 0;
#X connect 5 0 4 0;
#X connect 7 0 9 0;
#X connect 7 0 11 0;
#X connect 8 0 3 0;
#X connect 9 0 10 0;
