#N canvas 656 152 549 574 12;
#X declare -lib iemlib;
#X msg 238 33 devices;
#X msg 357 21 close;
#X msg 304 29 open 6;
#X obj 268 188 sel 13 10;
#X obj 268 258 iem_alisttosym;
#X obj 268 234 else/group 100;
#X obj 74 182 declare -lib iemlib;
#X obj 268 282 cyclone/fromsymbol;
#X obj 267 96 comport 0 9600;
#X obj 300 421 print;
#X obj 232 334 route Analog01 other;
#X obj 62 478 *~;
#X msg 38 315 open ../soundfiles/rain_short.wav \, 1;
#X obj 102 486 *~;
#X obj 193 377 vsl 15 128 0 250 0 0 empty empty empty 0 -9 0 10 #fcfcfc
#000000 #000000 0 1;
#X floatatom 193 537 5 0 0 0 - - - 0;
#X obj 57 531 dac~ 1 2;
#X obj 78 411 readsf~ 2;
#X obj 193 513 / 250;
#X obj 50 269 loadbang;
#X obj 4 444 env~;
#X floatatom 4 468 5 0 0 0 - - - 0;
#X connect 0 0 8 0;
#X connect 1 0 8 0;
#X connect 2 0 8 0;
#X connect 3 0 5 0;
#X connect 3 2 5 0;
#X connect 4 0 7 0;
#X connect 5 0 4 0;
#X connect 7 0 10 0;
#X connect 8 0 3 0;
#X connect 10 0 9 0;
#X connect 10 0 14 0;
#X connect 11 0 16 0;
#X connect 12 0 17 0;
#X connect 13 0 16 1;
#X connect 14 0 18 0;
#X connect 15 0 13 1;
#X connect 15 0 11 1;
#X connect 17 0 11 0;
#X connect 17 0 20 0;
#X connect 17 1 13 0;
#X connect 17 2 12 0;
#X connect 18 0 15 0;
#X connect 19 0 12 0;
#X connect 20 0 21 0;
