#N canvas 553 118 768 679 12;
#X declare -lib iemlib;
#X msg 220 24 devices;
#X msg 339 12 close;
#X msg 286 20 open 6;
#X obj 77 384 sel 13 10;
#X obj 77 454 iem_alisttosym;
#X obj 77 430 else/group 100;
#X obj 45 123 declare -lib iemlib;
#X obj 77 478 cyclone/fromsymbol;
#X obj 266 333 comport 0 9600;
#X obj 480 223 moocow/any2bytes;
#X obj 480 247 cyclone/zl ecils 1;
#X obj 480 271 cyclone/append 32 13;
#X obj 544 -19 random 10;
#X obj 544 52 route 4;
#X obj 544 -89 metro;
#X obj 510 -51 bng 15 250 50 0 empty empty empty 17 7 0 10 #fcfcfc
#000000 #000000;
#X obj 544 -136 bng 15 250 50 0 empty empty empty 17 7 0 10 #fcfcfc
#000000 #000000;
#X floatatom 618 -120 5 0 0 0 - - - 0;
#X obj 482 140 tgl 15 0 empty empty empty 17 7 0 10 #fcfcfc #000000
#000000 0 1;
#X msg 590 101 0;
#X msg 490 93 1;
#X obj 475 189 change;
#X floatatom 493 20 5 0 0 0 - - - 0;
#X connect 0 0 8 0;
#X connect 1 0 8 0;
#X connect 2 0 8 0;
#X connect 3 0 5 0;
#X connect 3 2 5 0;
#X connect 4 0 7 0;
#X connect 5 0 4 0;
#X connect 8 0 3 0;
#X connect 9 0 10 0;
#X connect 10 0 11 0;
#X connect 11 0 8 0;
#X connect 12 0 13 0;
#X connect 12 0 22 0;
#X connect 13 0 20 0;
#X connect 13 1 19 0;
#X connect 14 0 15 0;
#X connect 14 0 12 0;
#X connect 16 0 14 0;
#X connect 17 0 14 1;
#X connect 18 0 21 0;
#X connect 19 0 18 0;
#X connect 20 0 18 0;
#X connect 21 0 9 0;
