#N canvas 546 36 878 715 12;
#X obj 406 115 comport 0 9600;
#X msg 357 19 devices;
#X msg 476 7 close;
#X msg 423 15 open 6;
#X obj 398 211 sel 13 10;
#X obj 398 257 zl group 100;
#X obj 398 281 iem_alisttosym;
#X obj 398 305 fromsymbol;
#X obj 75 722 *~;
#X obj 81 767 dac~;
#X text 589 320 Moses takes numbers and outputs them at left if they're
less than a control value \, and at right if they're greater or equal
to it., f 34;
#X msg 27 618 0;
#X msg 68 586 open howling_blizzard_haparanda_binaural.wav \, 1, f
22;
#X obj 70 539 loadbang;
#X obj 67 661 readsf~ 2;
#X obj 110 723 *~;
#X obj 264 538 vsl 15 128 0 1 0 0 empty empty empty 0 -9 0 10 #fcfcfc
#000000 #000000 0 1;
#X floatatom 401 346 5 0 0 0 - - - 0;
#X obj 399 372 - 87;
#X obj 289 424 * -1;
#X floatatom 289 472 14 0 0 0 - - - 0;
#X obj 289 448 exp 1.6;
#X floatatom 629 120 5 0 0 0 - - - 0;
#X obj 629 143 moocow/any2bytes;
#X obj 629 167 cyclone/zl ecils 1;
#X obj 629 191 cyclone append 32 13;
#X obj 245 684 moses 1;
#X floatatom 256 736 16 0 0 0 - - - 0;
#X connect 0 0 4 0;
#X connect 1 0 0 0;
#X connect 2 0 0 0;
#X connect 3 0 0 0;
#X connect 4 0 5 0;
#X connect 4 2 5 0;
#X connect 5 0 6 0;
#X connect 6 0 7 0;
#X connect 8 0 9 0;
#X connect 11 0 14 0;
#X connect 12 0 14 0;
#X connect 13 0 12 0;
#X connect 14 0 8 0;
#X connect 14 1 15 0;
#X connect 14 2 12 0;
#X connect 15 0 9 1;
#X connect 16 0 26 0;
#X connect 17 0 18 0;
#X connect 18 0 19 0;
#X connect 19 0 21 0;
#X connect 20 0 16 0;
#X connect 21 0 20 0;
#X connect 22 0 23 0;
#X connect 23 0 24 0;
#X connect 24 0 25 0;
#X connect 26 0 8 1;
#X connect 26 0 15 1;
#X connect 26 0 27 0;
