#N canvas 487 38 731 751 12;
#X declare -lib iemlib;
#X msg 220 24 devices;
#X msg 339 12 close;
#X msg 286 20 open 6;
#X obj 261 216 sel 13 10;
#X obj 261 286 iem_alisttosym;
#X obj 261 343 unpack f f f f f f;
#X obj 92 374 print;
#X obj 123 737 osc~ 220;
#X floatatom 209 417 5 0 0 0 - - - 0;
#X floatatom 329 414 5 0 0 0 - - - 0;
#X floatatom 414 427 5 0 0 0 - - - 0;
#X obj 170 474 moses 1000;
#X obj 210 737 line;
#X obj 170 787 *~ 0.5;
#X obj 269 831 dac~ 1 2;
#X msg 152 522 0;
#X msg 206 522 1;
#X obj 168 590 change;
#X obj 163 628 route 0 1;
#X msg 161 682 0 1000;
#X obj 369 722 line;
#X obj 329 772 *~ 0.5;
#X msg 311 507 0;
#X msg 365 507 1;
#X obj 327 575 change;
#X obj 322 613 route 0 1;
#X msg 320 667 0 1000;
#X obj 282 722 osc~ 280;
#X obj 329 459 moses 300;
#X obj 548 741 line;
#X obj 508 791 *~ 0.5;
#X msg 490 526 0;
#X msg 544 526 1;
#X obj 506 594 change;
#X obj 501 632 route 0 1;
#X msg 499 686 0 1000;
#X obj 461 741 osc~ 330;
#X obj 508 478 moses 1000;
#X msg 265 679 1 50;
#X msg 424 664 1 50;
#X msg 603 683 1 50;
#X obj 261 262 else/group 100;
#X obj 90 161 declare -lib iemlib;
#X obj 261 310 cyclone/fromsymbol;
#X obj 261 166 comport 0 9600;
#X connect 0 0 44 0;
#X connect 1 0 44 0;
#X connect 2 0 44 0;
#X connect 3 0 41 0;
#X connect 3 2 41 0;
#X connect 4 0 43 0;
#X connect 5 0 8 0;
#X connect 5 1 9 0;
#X connect 5 2 10 0;
#X connect 7 0 13 0;
#X connect 8 0 11 0;
#X connect 9 0 28 0;
#X connect 10 0 37 0;
#X connect 11 0 15 0;
#X connect 11 1 16 0;
#X connect 12 0 13 1;
#X connect 13 0 14 0;
#X connect 13 0 14 1;
#X connect 15 0 17 0;
#X connect 16 0 17 0;
#X connect 17 0 18 0;
#X connect 18 0 19 0;
#X connect 18 1 38 0;
#X connect 19 0 12 0;
#X connect 20 0 21 1;
#X connect 21 0 14 0;
#X connect 21 0 14 1;
#X connect 22 0 24 0;
#X connect 23 0 24 0;
#X connect 24 0 25 0;
#X connect 25 0 26 0;
#X connect 25 1 39 0;
#X connect 26 0 20 0;
#X connect 27 0 21 0;
#X connect 28 0 22 0;
#X connect 28 1 23 0;
#X connect 29 0 30 1;
#X connect 30 0 14 0;
#X connect 30 0 14 1;
#X connect 31 0 33 0;
#X connect 32 0 33 0;
#X connect 33 0 34 0;
#X connect 34 0 35 0;
#X connect 34 1 40 0;
#X connect 35 0 29 0;
#X connect 36 0 30 0;
#X connect 37 0 31 0;
#X connect 37 1 32 0;
#X connect 38 0 12 0;
#X connect 39 0 20 0;
#X connect 40 0 29 0;
#X connect 41 0 4 0;
#X connect 43 0 5 0;
#X connect 43 0 6 0;
#X connect 44 0 3 0;
